<?xml version="1.0" encoding="UTF-8"?>
<svg id="svg1" xmlns="http://www.w3.org/2000/svg" xmlns:svg="http://www.w3.org/2000/svg" xmlns:sodipodi="http://sodipodi.sourceforge.net/DTD/sodipodi-0.dtd" xmlns:inkscape="http://www.inkscape.org/namespaces/inkscape" version="1.1" viewBox="0 0 2000 500">
  <!-- Generator: Adobe Illustrator 30.0.0, SVG Export Plug-In . SVG Version: 2.1.1 Build 123)  -->
  <defs>
    <style>
      .st0 {
        fill: #fff;
      }
    </style>
  </defs>
  <sodipodi:namedview id="namedview1" bordercolor="#eeeeee" borderopacity="1" inkscape:current-layer="g1" inkscape:cx="831.31763" inkscape:cy="534.72774" inkscape:deskcolor="#505050" inkscape:pagecheckerboard="0" inkscape:pageopacity="0" inkscape:showpageshadow="0" inkscape:window-height="916" inkscape:window-maximized="1" inkscape:window-width="1512" inkscape:window-x="0" inkscape:window-y="38" inkscape:zoom="0.23095865" pagecolor="#505050" showgrid="false"/>
  <g id="g1" inkscape:groupmode="layer" inkscape:label="Image">
    <path id="path1" class="st0" d="M264.8,474.5c24.2-3.9,17.6-40.3-6.8-36-22.5,3.9-15.5,39.5,6.8,36M329.1,436.1c12.5-2,21-15.9,14.4-27.5-5.4-9.5-15.1-6.6-21.8-13-7.9-7.4-15.2-15.8-22.9-23.5-5.4-5.4-11.9-10.6-16.5-16.7-2-2.7-1.1-6.2-2.3-9.3-3.3-8.4-11.1-13.2-20.1-12.3-15.9,1.7-12.6,16.8-21,25.2-12,12-23.5,26-36.5,36.9-6.1,5.2-14.5,3-19.8,10.1-6.6,8.8-3.9,22,5.6,27.6,9.2,5.5,20.9,1.7,25.7-7.8,2.1-4.2,1.4-9.2,4.3-13,7.9-10.4,19.4-20.5,29.1-29.2,4.4-3.9,9.6-12.9,16.3-12.1,4.7.6,8.7,7.3,11.8,10.4,9.9,9.8,24.8,20.1,31.9,32.1,1.7,2.9,1.1,6.8,2.4,9.9,3,7.7,11,13.4,19.5,12.1M377.9,379.2c12.7-2.7,18.2-18.2,11.4-28.7-5.4-8.3-14.7-5.7-21.3-11.7-11.2-10.3-23.6-21.5-33.2-33.4-2.7-3.4-2.2-7.3-4-11.1-4-8.7-13.5-13.1-22.8-10.6-11.9,3.2-16.4,17.6-10.2,27.9,5.4,8.9,15.6,6.4,22.5,12.6,10.9,9.7,23.8,21.5,32.6,33.1,2.5,3.3,2,8,3.6,11.7,3.4,7.9,13.1,11.9,21.3,10.2M154.1,379.2c6.1-1.3,11.7-5.4,13.7-11.4,1.2-3.4,1-7.7,3.3-10.6,4.6-6,11-11.2,16.4-16.6,6.6-6.6,12.9-14.1,20.4-19.6,4.7-3.4,11.1-1.5,16-6,5.9-5.3,3.4-13.5,8.2-19,7.6-8.6,17.4-20.7,27.1-26.8,4.9-3.1,10.7-1.4,15.4-6,5-4.9,3.5-10.2,6.7-15.4,4-6.5,11.5-12.4,16.9-17.9,3.7-3.9,8.1-9.8,13-12.3,5.6-2.8,11.1-1,16-6.3,6.1-6.6,5.5-15.4,11.9-22.2,9.5-10.2,20.1-22.6,31.5-30.6,5.9-4.1,12.3-1.9,17.7-8.4,10.2-12.2.6-31.2-15.2-30.7-6.8.2-14.1,5.3-16.6,11.6-1.3,3.4-.8,7.5-2.9,10.5-3.9,5.7-10.2,10.6-15.1,15.5-6.8,6.8-13.4,15-21,20.8-5.4,4.1-12.5,2.8-17.9,8.3-4.6,4.7-2.8,10.5-6,15.4-6.1,9.6-17.8,19.5-26.2,27.2-5.1,4.7-13,2.6-18.4,8.1-4.7,4.9-3.6,10-6.3,15.4-1.6,3.1-5,5.6-7.4,8-6.7,6.7-13.6,16.2-21.6,21.3-5.4,3.4-11.6,1.7-16.6,7.2-4.7,5.2-3.1,12.5-7.6,17.3-7.3,7.9-15.2,15.3-22.8,22.9-3.7,3.7-7.5,8.9-11.8,11.9-6.4,4.4-13.9,1.7-19.2,9.1-9.3,13,2.6,32.8,18.7,29.3M433.5,332.9c13.1-2.4,19.2-17.9,11.7-28.7-5.2-7.5-11.9-5.2-18.5-9.1-4.2-2.5-7.1-6.7-10.5-10.1l-21-21c-3.5-3.5-9.9-8-11.3-13-1.5-5.5,9.8-13.3,13.1-16.7,9.4-9.5,18.7-21.8,29.7-29.5,6.2-4.4,13.3-2,18.5-9.4,8.8-12.8-1-29.4-16-29-7.5.2-14.1,4.6-16.6,11.7-1.4,4-.8,7.8-3.8,11.1-9.1,10.1-19.1,19.8-29,29.2-4,3.8-7.2,8.8-11.8,11.9-4,2.8-9.8,1.2-14.2,4.1-6.2,4.1-9.1,11.9-7.5,19.1,1.5,7,6.1,12.2,13.1,14.1,2.8.7,6.2.2,8.7,1.7,9.5,6,17.3,17.2,25.3,25,5.5,5.3,12.8,11.5,16.8,17.9,1.7,2.7,1.3,6.3,2.5,9.3,3.4,8.2,12.1,13,20.8,11.5M97.3,332.9c6.9-1.2,12.7-6,14.9-12.7,1.3-3.9.7-7.3,3.7-10.5,8.4-9.2,17.7-17.8,26.5-26.6,4.4-4.4,8.9-10.5,14.2-13.8,3.5-2.2,8.5-.8,12.4-2.9,6.2-3.4,10.7-11.4,9.6-18.5-1-6.7-5.3-13.5-12.1-15.6-3.2-1-6.3,0-9.3-1.9-6.5-4.1-12-11.1-17.3-16.5-8-8.2-17.8-16.1-24.4-25.3-2.6-3.7-2.5-8.4-4.6-12.4-4.3-8.3-14.2-11.9-23-9-12.9,4.2-16.1,20.7-7.2,30.4,5,5.4,11.7,3.7,17.1,7.4,10.9,7.5,20.3,19.4,29.7,28.8,3.6,3.6,12.9,10.7,12.9,16.1s-9.7,12.2-13.5,16.1c-9.3,9.5-18.3,21-29.1,28.9-2.5,1.8-5.2,1.2-8,1.9-4.7,1.2-9,4.1-11.7,8.2-8.7,13.3,4,30.9,19.1,28.1M468.8,267.8c24.1-.4,23.5-37.4-.6-36.6-23.5.8-22.9,37,.6,36.6M56.5,267.9c23.8-1.1,22.1-38.3-1.9-36.7-23.7,1.6-22,37.8,1.9,36.7M213.5,216.7c13-2,20.5-16.5,13.5-28.2-5.3-8.8-15-6.3-21.5-12.4-11.3-10.6-25.3-22.1-34.3-34.6-2.3-3.1-1.8-7.6-3.3-11.1-3.4-7.9-12.8-12.2-21-10.4-12.3,2.6-18.5,17-12.1,27.7,5.5,9.3,14.6,6.3,21.4,12.4,11.4,10.2,25.3,22.2,34.3,34.5,2,2.7,1.4,6.2,2.7,9.3,3.5,8.4,11,14.2,20.5,12.7M264.2,166c6.9-1.1,13.1-5.3,15.4-12.1,1.2-3.6.3-7.3,2.7-10.5,10.9-14.1,26.2-27.5,39.4-39.5,6.8-6.2,16.5-3.4,21.8-13,6-11-.8-25.1-13.1-27.4-9.2-1.7-17.4,3.4-20.7,12-1.3,3.3-.8,7.6-3,10.5-7.7,10.3-18.7,18.5-27.6,27.8-3.9,4.1-11.4,16-17.9,14.5-4.5-1-8.6-7.1-11.7-10.2-6-6-11.8-12.4-18-18.3-4.6-4.4-10.5-8.9-13.8-14.5-1.9-3.2-1.4-7.1-2.9-10.5-3.9-9-13.4-12.9-22.8-10.9-12.5,2.7-16.3,19.1-9.8,28.8,5.5,8.3,15,5.8,21.6,11.8,8.8,8,16.9,16.9,25.3,25.3,4.4,4.4,10.5,8.9,13.8,14.2,2.3,3.8,1,8.9,3.5,13,3.8,6.1,10.6,10.1,17.9,9M263.5,61.6c24.9-3,19.9-39.2-4.9-36.1-22.3,2.8-17,38.7,4.9,36.1Z"/>
  </g>
  <g>
    <path class="st0" d="M668.7,367.5c-11.6,0-21.2-2-28.6-6-7.4-4-13.2-8.6-17.4-13.9-4.2-5.3-7.5-10-9.8-14.2h-3.1v30.2h-37V106.4h38v95.7h2.1c2.3-4,5.5-8.7,9.6-14,4.1-5.3,9.8-9.9,17.1-13.9,7.3-4,17-6,29.1-6s29.2,3.9,41.4,11.7c12.1,7.8,21.7,19.2,28.8,34,7,14.9,10.5,32.8,10.5,53.7s-3.5,38.5-10.4,53.5c-6.9,14.9-16.4,26.4-28.6,34.4-12.1,8-26.1,12-41.7,12ZM660.3,335.2c11.1,0,20.3-3,27.8-9,7.5-6,13.1-14.1,16.8-24.4,3.7-10.2,5.6-21.8,5.6-34.5s-1.9-24-5.6-34.1c-3.7-10.1-9.3-18-16.8-23.9-7.4-5.9-16.7-8.8-27.9-8.8s-20,2.8-27.5,8.4c-7.5,5.6-13.1,13.4-16.9,23.3-3.8,10-5.7,21.7-5.7,35.1s1.9,25.1,5.8,35.3c3.9,10.2,9.5,18.2,17,23.9,7.5,5.8,16.6,8.6,27.3,8.6Z"/>
    <path class="st0" d="M872.7,367.7c-18.1,0-33.9-4.1-47.4-12.4-13.5-8.3-24-19.9-31.5-34.9-7.5-15-11.2-32.4-11.2-52.2s3.7-37.6,11.2-52.6c7.5-15,18-26.7,31.5-35,13.5-8.3,29.3-12.4,47.4-12.4s34,4.1,47.6,12.4c13.5,8.3,24,19.9,31.5,35,7.5,15,11.2,32.6,11.2,52.6s-3.7,37.2-11.2,52.2c-7.5,15-18,26.6-31.5,34.9-13.5,8.3-29.4,12.4-47.6,12.4ZM872.7,335.6c11.7,0,21.4-3.1,29.1-9.2,7.7-6.2,13.4-14.3,17.1-24.5,3.7-10.2,5.6-21.4,5.6-33.6s-1.9-23.6-5.6-33.9c-3.7-10.3-9.4-18.5-17.1-24.7-7.7-6.2-17.4-9.2-29.1-9.2s-21.2,3.1-28.8,9.2c-7.6,6.2-13.3,14.4-17,24.6-3.7,10.2-5.6,21.6-5.6,34s1.9,23.4,5.6,33.6c3.7,10.2,9.4,18.4,17,24.5,7.6,6.2,17.2,9.2,28.8,9.2Z"/>
    <path class="st0" d="M1086.3,367.7c-18.1,0-33.9-4.1-47.4-12.4-13.5-8.3-24-19.9-31.5-34.9-7.5-15-11.2-32.4-11.2-52.2s3.7-37.6,11.2-52.6c7.5-15,18-26.7,31.5-35,13.5-8.3,29.3-12.4,47.4-12.4s34,4.1,47.6,12.4c13.5,8.3,24,19.9,31.5,35,7.5,15,11.2,32.6,11.2,52.6s-3.7,37.2-11.2,52.2c-7.5,15-18,26.6-31.5,34.9-13.5,8.3-29.4,12.4-47.6,12.4ZM1086.3,335.6c11.7,0,21.4-3.1,29.1-9.2,7.7-6.2,13.4-14.3,17.1-24.5,3.7-10.2,5.6-21.4,5.6-33.6s-1.9-23.6-5.6-33.9c-3.7-10.3-9.4-18.5-17.1-24.7-7.7-6.2-17.4-9.2-29.1-9.2s-21.2,3.1-28.8,9.2c-7.6,6.2-13.3,14.4-17,24.6-3.7,10.2-5.6,21.6-5.6,34s1.9,23.4,5.6,33.6c3.7,10.2,9.4,18.4,17,24.5,7.6,6.2,17.2,9.2,28.8,9.2Z"/>
    <path class="st0" d="M1218.8,363.7v-193.1h36.1l1,44.7h-2.9c2.8-10.9,7-19.9,12.8-26.9,5.8-7,12.5-12.3,20.2-15.8,7.7-3.5,15.8-5.3,24.2-5.3,14,0,25.4,4.3,34,13,8.6,8.7,14.4,20.8,17.4,36.4h-4.8c2.5-10.6,6.9-19.6,13.1-26.9,6.2-7.4,13.7-13,22.5-16.8,8.8-3.8,18.2-5.7,28.2-5.7s21.7,2.5,31,7.4c9.3,5,16.6,12.3,22,22.1,5.4,9.8,8.1,22,8.1,36.6v130.2h-38v-126.4c0-12.9-3.6-22.2-10.8-28-7.2-5.8-15.7-8.6-25.5-8.6s-14.8,1.7-20.6,5c-5.8,3.3-10.2,8-13.3,13.9-3.1,5.9-4.7,12.8-4.7,20.5v123.7h-37.5v-128.8c0-10.4-3.3-18.7-9.9-24.9-6.6-6.2-15.1-9.3-25.3-9.3s-13.6,1.6-19.6,4.9c-6,3.3-10.9,8.1-14.5,14.5-3.6,6.4-5.4,14.2-5.4,23.6v120h-38Z"/>
    <path class="st0" d="M1587,368c-12.2,0-23.3-2.3-33.2-6.8-9.9-4.5-17.7-11.2-23.5-19.9-5.8-8.7-8.6-19.5-8.6-32.1s2.1-19.9,6.3-26.9c4.2-7,9.9-12.6,17.1-16.8,7.2-4.1,15.2-7.3,24-9.3s17.8-3.6,26.9-4.7c11.4-1.4,20.7-2.5,27.8-3.4,7.1-.9,12.4-2.3,15.8-4.3,3.4-2,5.1-5.3,5.1-9.8v-1c0-7.3-1.4-13.4-4.1-18.3-2.8-4.9-6.9-8.8-12.3-11.5-5.5-2.7-12.3-4.1-20.5-4.1s-15.6,1.3-21.7,3.9c-6,2.6-10.9,5.9-14.7,9.9-3.7,4-6.5,8.2-8.4,12.6l-35.8-9.3c4.4-11.5,10.6-20.8,18.8-27.8,8.2-7,17.6-12.1,28.2-15.4,10.6-3.2,21.5-4.8,32.8-4.8s16.1.9,24.9,2.8c8.7,1.8,17,5.2,24.7,10,7.7,4.8,14,11.6,18.8,20.4,4.8,8.8,7.3,20.1,7.3,34.2v128.1h-36.8v-26.4h-1.9c-2.5,5-6.3,9.8-11.2,14.5-5,4.7-11.2,8.6-18.7,11.7-7.5,3-16.6,4.6-27,4.6ZM1595.5,337.5c10.4,0,19.2-2,26.6-6,7.4-4,13-9.4,16.9-16.1,3.9-6.7,5.9-13.8,5.9-21.2v-24.7c-1.4,1.4-4,2.6-7.9,3.7-3.9,1.1-8.3,2.1-13.2,2.9-5,.9-9.7,1.6-14.3,2.2-4.6.6-8.4,1-11.4,1.4-7.1.9-13.7,2.5-19.6,4.7-5.9,2.2-10.7,5.3-14.2,9.3-3.5,4-5.3,9.4-5.3,16.1s1.6,11.2,4.8,15.4c3.2,4.1,7.5,7.3,12.9,9.3,5.4,2.1,11.7,3.1,18.8,3.1Z"/>
    <path class="st0" d="M1753,141.1c-6.6,0-12.2-2.2-16.8-6.6-4.7-4.4-7-9.7-7-15.8s2.3-11.7,7-16.1c4.7-4.4,10.3-6.6,16.8-6.6s12.2,2.2,16.9,6.6c4.7,4.4,7.1,9.7,7.1,16.1s-2.4,11.5-7.1,15.9c-4.7,4.4-10.4,6.6-16.9,6.6ZM1733.8,363.7v-193.1h38v193.1h-38Z"/>
  </g>
</svg>