<?xml version="1.0" encoding="UTF-8" standalone="no"?>
<!-- Created with Inkscape (http://www.inkscape.org/) -->

<svg
   width="500"
   height="500"
   viewBox="0 0 500 500"
   version="1.1"
   id="svg1"
   xml:space="preserve"
   inkscape:version="1.4 (e7c3feb1, 2024-10-09)"
   sodipodi:docname="boomai.svg"
   xmlns:inkscape="http://www.inkscape.org/namespaces/inkscape"
   xmlns:sodipodi="http://sodipodi.sourceforge.net/DTD/sodipodi-0.dtd"
   xmlns="http://www.w3.org/2000/svg"
   xmlns:svg="http://www.w3.org/2000/svg"><sodipodi:namedview
     id="namedview1"
     pagecolor="#505050"
     bordercolor="#eeeeee"
     borderopacity="1"
     inkscape:showpageshadow="0"
     inkscape:pageopacity="0"
     inkscape:pagecheckerboard="0"
     inkscape:deskcolor="#505050"
     inkscape:document-units="px"
     inkscape:zoom="0.76525197"
     inkscape:cx="301.86136"
     inkscape:cy="447.565"
     inkscape:window-width="1200"
     inkscape:window-height="916"
     inkscape:window-x="0"
     inkscape:window-y="38"
     inkscape:window-maximized="0"
     inkscape:current-layer="g2" /><defs
     id="defs1"><style
       id="style1">
      .st0 {
        fill: #800033;
      }
    </style></defs><g
     inkscape:label="Layer 1"
     inkscape:groupmode="layer"
     id="layer1"><g
       id="g2"
       transform="translate(-590.33725,10.973182)"><g
         id="g1"
         inkscape:label="Image"
         transform="matrix(1.1117787,0,0,1.1117787,549.37044,-39.207503)"
         style="fill:#ffffff"><path
           id="path1"
           class="st0"
           d="m 264.8,474.5 c 24.2,-3.9 17.6,-40.3 -6.8,-36 -22.5,3.9 -15.5,39.5 6.8,36 m 64.3,-38.4 c 12.5,-2 21,-15.9 14.4,-27.5 -5.4,-9.5 -15.1,-6.6 -21.8,-13 -7.9,-7.4 -15.2,-15.8 -22.9,-23.5 -5.4,-5.4 -11.9,-10.6 -16.5,-16.7 -2,-2.7 -1.1,-6.2 -2.3,-9.3 -3.3,-8.4 -11.1,-13.2 -20.1,-12.3 -15.9,1.7 -12.6,16.8 -21,25.2 -12,12 -23.5,26 -36.5,36.9 -6.1,5.2 -14.5,3 -19.8,10.1 -6.6,8.8 -3.9,22 5.6,27.6 9.2,5.5 20.9,1.7 25.7,-7.8 2.1,-4.2 1.4,-9.2 4.3,-13 7.9,-10.4 19.4,-20.5 29.1,-29.2 4.4,-3.9 9.6,-12.9 16.3,-12.1 4.7,0.6 8.7,7.3 11.8,10.4 9.9,9.8 24.8,20.1 31.9,32.1 1.7,2.9 1.1,6.8 2.4,9.9 3,7.7 11,13.4 19.5,12.1 m 48.7,-56.8 c 12.7,-2.7 18.2,-18.2 11.4,-28.7 -5.4,-8.3 -14.7,-5.7 -21.3,-11.7 -11.2,-10.3 -23.6,-21.5 -33.2,-33.4 -2.7,-3.4 -2.2,-7.3 -4,-11.1 -4,-8.7 -13.5,-13.1 -22.8,-10.6 -11.9,3.2 -16.4,17.6 -10.2,27.9 5.4,8.9 15.6,6.4 22.5,12.6 10.9,9.7 23.8,21.5 32.6,33.1 2.5,3.3 2,8 3.6,11.7 3.4,7.9 13.1,11.9 21.3,10.2 m -223.7,0 c 6.1,-1.3 11.7,-5.4 13.7,-11.4 1.2,-3.4 1,-7.7 3.3,-10.6 4.6,-6 11,-11.2 16.4,-16.6 6.6,-6.6 12.9,-14.1 20.4,-19.6 4.7,-3.4 11.1,-1.5 16,-6 5.9,-5.3 3.4,-13.5 8.2,-19 7.6,-8.6 17.4,-20.7 27.1,-26.8 4.9,-3.1 10.7,-1.4 15.4,-6 5,-4.9 3.5,-10.2 6.7,-15.4 4,-6.5 11.5,-12.4 16.9,-17.9 3.7,-3.9 8.1,-9.8 13,-12.3 5.6,-2.8 11.1,-1 16,-6.3 6.1,-6.6 5.5,-15.4 11.9,-22.2 9.5,-10.2 20.1,-22.6 31.5,-30.6 5.9,-4.1 12.3,-1.9 17.7,-8.4 10.2,-12.2 0.6,-31.2 -15.2,-30.7 -6.8,0.2 -14.1,5.3 -16.6,11.6 -1.3,3.4 -0.8,7.5 -2.9,10.5 -3.9,5.7 -10.2,10.6 -15.1,15.5 -6.8,6.8 -13.4,15 -21,20.8 -5.4,4.1 -12.5,2.8 -17.9,8.3 -4.6,4.7 -2.8,10.5 -6,15.4 -6.1,9.6 -17.8,19.5 -26.2,27.2 -5.1,4.7 -13,2.6 -18.4,8.1 -4.7,4.9 -3.6,10 -6.3,15.4 -1.6,3.1 -5,5.6 -7.4,8 -6.7,6.7 -13.6,16.2 -21.6,21.3 -5.4,3.4 -11.6,1.7 -16.6,7.2 -4.7,5.2 -3.1,12.5 -7.6,17.3 -7.3,7.9 -15.2,15.3 -22.8,22.9 -3.7,3.7 -7.5,8.9 -11.8,11.9 -6.4,4.4 -13.9,1.7 -19.2,9.1 -9.3,13 2.6,32.8 18.7,29.3 m 279.1,-46.3 c 13.1,-2.4 19.2,-17.9 11.7,-28.7 -5.2,-7.5 -11.9,-5.2 -18.5,-9.1 -4.2,-2.5 -7.1,-6.7 -10.5,-10.1 l -21,-21 c -3.5,-3.5 -9.9,-8 -11.3,-13 -1.5,-5.5 9.8,-13.3 13.1,-16.7 9.4,-9.5 18.7,-21.8 29.7,-29.5 6.2,-4.4 13.3,-2 18.5,-9.4 8.8,-12.8 -1,-29.4 -16,-29 -7.5,0.2 -14.1,4.6 -16.6,11.7 -1.4,4 -0.8,7.8 -3.8,11.1 -9.1,10.1 -19.1,19.8 -29,29.2 -4,3.8 -7.2,8.8 -11.8,11.9 -4,2.8 -9.8,1.2 -14.2,4.1 -6.2,4.1 -9.1,11.9 -7.5,19.1 1.5,7 6.1,12.2 13.1,14.1 2.8,0.7 6.2,0.2 8.7,1.7 9.5,6 17.3,17.2 25.3,25 5.5,5.3 12.8,11.5 16.8,17.9 1.7,2.7 1.3,6.3 2.5,9.3 3.4,8.2 12.1,13 20.8,11.5 M 97.3,332.9 c 6.9,-1.2 12.7,-6 14.9,-12.7 1.3,-3.9 0.7,-7.3 3.7,-10.5 8.4,-9.2 17.7,-17.8 26.5,-26.6 4.4,-4.4 8.9,-10.5 14.2,-13.8 3.5,-2.2 8.5,-0.8 12.4,-2.9 6.2,-3.4 10.7,-11.4 9.6,-18.5 -1,-6.7 -5.3,-13.5 -12.1,-15.6 -3.2,-1 -6.3,0 -9.3,-1.9 -6.5,-4.1 -12,-11.1 -17.3,-16.5 -8,-8.2 -17.8,-16.1 -24.4,-25.3 -2.6,-3.7 -2.5,-8.4 -4.6,-12.4 -4.3,-8.3 -14.2,-11.9 -23,-9 -12.9,4.2 -16.1,20.7 -7.2,30.4 5,5.4 11.7,3.7 17.1,7.4 10.9,7.5 20.3,19.4 29.7,28.8 3.6,3.6 12.9,10.7 12.9,16.1 0,5.4 -9.7,12.2 -13.5,16.1 -9.3,9.5 -18.3,21 -29.1,28.9 -2.5,1.8 -5.2,1.2 -8,1.9 -4.7,1.2 -9,4.1 -11.7,8.2 -8.7,13.3 4,30.9 19.1,28.1 m 371.6,-65.3 c 24.1,-0.4 23.5,-37.4 -0.6,-36.6 -23.5,0.8 -22.9,37 0.6,36.6 m -412.3,0.1 c 23.8,-1.1 22.1,-38.3 -1.9,-36.7 -23.7,1.6 -22,37.8 1.9,36.7 m 157,-51.2 c 13,-2 20.5,-16.5 13.5,-28.2 -5.3,-8.8 -15,-6.3 -21.5,-12.4 -11.3,-10.6 -25.3,-22.1 -34.3,-34.6 -2.3,-3.1 -1.8,-7.6 -3.3,-11.1 -3.4,-7.9 -12.8,-12.2 -21,-10.4 -12.3,2.6 -18.5,17 -12.1,27.7 5.5,9.3 14.6,6.3 21.4,12.4 11.4,10.2 25.3,22.2 34.3,34.5 2,2.7 1.4,6.2 2.7,9.3 3.5,8.4 11,14.2 20.5,12.7 M 264.2,166 c 6.9,-1.1 13.1,-5.3 15.4,-12.1 1.2,-3.6 0.3,-7.3 2.7,-10.5 10.9,-14.1 26.2,-27.5 39.4,-39.5 6.8,-6.2 16.5,-3.4 21.8,-13 6,-11 -0.8,-25.1 -13.1,-27.4 -9.2,-1.7 -17.4,3.4 -20.7,12 -1.3,3.3 -0.8,7.6 -3,10.5 -7.7,10.3 -18.7,18.5 -27.6,27.8 -3.9,4.1 -11.4,16 -17.9,14.5 -4.5,-1 -8.6,-7.1 -11.7,-10.2 -6,-6 -11.8,-12.4 -18,-18.3 -4.6,-4.4 -10.5,-8.9 -13.8,-14.5 -1.9,-3.2 -1.4,-7.1 -2.9,-10.5 -3.9,-9 -13.4,-12.9 -22.8,-10.9 -12.5,2.7 -16.3,19.1 -9.8,28.8 5.5,8.3 15,5.8 21.6,11.8 8.8,8 16.9,16.9 25.3,25.3 4.4,4.4 10.5,8.9 13.8,14.2 2.3,3.8 1,8.9 3.5,13 3.8,6.1 10.6,10.1 17.9,9 M 263.5,61.6 c 24.9,-3 19.9,-39.2 -4.9,-36.1 -22.3,2.8 -17,38.7 4.9,36.1 z"
           style="fill:#ffffff" /></g><g
         id="g7"
         transform="translate(572.93725,10.326818)" /><ellipse
         style="fill:#ffffff;stroke:#ffffff;stroke-width:1.08367;stroke-opacity:0;-inkscape-stroke:none;paint-order:stroke fill markers"
         id="path2"
         cx="612.18591"
         cy="238.22804"
         rx="21.158966"
         ry="20.409975" /></g></g></svg>
